<?xml version="1.0" encoding="UTF-8" ?>
<svg version="1.1" width="32" height="32" xmlns="http://www.w3.org/2000/svg" shape-rendering="crispEdges">
<rect x="14" y="5" width="1" height="1" fill="#222034" />
<rect x="15" y="5" width="1" height="1" fill="#222034" />
<rect x="16" y="5" width="1" height="1" fill="#222034" />
<rect x="17" y="5" width="1" height="1" fill="#222034" />
<rect x="18" y="5" width="1" height="1" fill="#222034" />
<rect x="19" y="5" width="1" height="1" fill="#222034" />
<rect x="12" y="6" width="1" height="1" fill="#222034" />
<rect x="13" y="6" width="1" height="1" fill="#222034" />
<rect x="14" y="6" width="1" height="1" fill="#222034" />
<rect x="15" y="6" width="1" height="1" fill="#222034" />
<rect x="16" y="6" width="1" height="1" fill="#222034" />
<rect x="17" y="6" width="1" height="1" fill="#222034" />
<rect x="18" y="6" width="1" height="1" fill="#222034" />
<rect x="19" y="6" width="1" height="1" fill="#222034" />
<rect x="20" y="6" width="1" height="1" fill="#222034" />
<rect x="21" y="6" width="1" height="1" fill="#222034" />
<rect x="22" y="6" width="1" height="1" fill="#222034" />
<rect x="11" y="7" width="1" height="1" fill="#222034" />
<rect x="12" y="7" width="1" height="1" fill="#222034" />
<rect x="13" y="7" width="1" height="1" fill="#222034" />
<rect x="14" y="7" width="1" height="1" fill="#222034" />
<rect x="19" y="7" width="1" height="1" fill="#222034" />
<rect x="20" y="7" width="1" height="1" fill="#222034" />
<rect x="21" y="7" width="1" height="1" fill="#222034" />
<rect x="22" y="7" width="1" height="1" fill="#222034" />
<rect x="23" y="7" width="1" height="1" fill="#222034" />
<rect x="10" y="8" width="1" height="1" fill="#222034" />
<rect x="11" y="8" width="1" height="1" fill="#222034" />
<rect x="12" y="8" width="1" height="1" fill="#222034" />
<rect x="17" y="8" width="1" height="1" fill="#222034" />
<rect x="18" y="8" width="1" height="1" fill="#222034" />
<rect x="22" y="8" width="1" height="1" fill="#222034" />
<rect x="23" y="8" width="1" height="1" fill="#222034" />
<rect x="24" y="8" width="1" height="1" fill="#222034" />
<rect x="9" y="9" width="1" height="1" fill="#222034" />
<rect x="10" y="9" width="1" height="1" fill="#222034" />
<rect x="11" y="9" width="1" height="1" fill="#222034" />
<rect x="15" y="9" width="1" height="1" fill="#222034" />
<rect x="16" y="9" width="1" height="1" fill="#222034" />
<rect x="17" y="9" width="1" height="1" fill="#222034" />
<rect x="18" y="9" width="1" height="1" fill="#222034" />
<rect x="19" y="9" width="1" height="1" fill="#222034" />
<rect x="23" y="9" width="1" height="1" fill="#222034" />
<rect x="24" y="9" width="1" height="1" fill="#222034" />
<rect x="9" y="10" width="1" height="1" fill="#222034" />
<rect x="10" y="10" width="1" height="1" fill="#222034" />
<rect x="14" y="10" width="1" height="1" fill="#222034" />
<rect x="15" y="10" width="1" height="1" fill="#222034" />
<rect x="16" y="10" width="1" height="1" fill="#222034" />
<rect x="19" y="10" width="1" height="1" fill="#222034" />
<rect x="20" y="10" width="1" height="1" fill="#222034" />
<rect x="24" y="10" width="1" height="1" fill="#222034" />
<rect x="25" y="10" width="1" height="1" fill="#222034" />
<rect x="9" y="11" width="1" height="1" fill="#222034" />
<rect x="10" y="11" width="1" height="1" fill="#222034" />
<rect x="14" y="11" width="1" height="1" fill="#222034" />
<rect x="15" y="11" width="1" height="1" fill="#222034" />
<rect x="19" y="11" width="1" height="1" fill="#222034" />
<rect x="20" y="11" width="1" height="1" fill="#222034" />
<rect x="24" y="11" width="1" height="1" fill="#222034" />
<rect x="25" y="11" width="1" height="1" fill="#222034" />
<rect x="8" y="12" width="1" height="1" fill="#222034" />
<rect x="9" y="12" width="1" height="1" fill="#222034" />
<rect x="10" y="12" width="1" height="1" fill="#222034" />
<rect x="18" y="12" width="1" height="1" fill="#222034" />
<rect x="19" y="12" width="1" height="1" fill="#222034" />
<rect x="24" y="12" width="1" height="1" fill="#222034" />
<rect x="25" y="12" width="1" height="1" fill="#222034" />
<rect x="8" y="13" width="1" height="1" fill="#222034" />
<rect x="9" y="13" width="1" height="1" fill="#222034" />
<rect x="15" y="13" width="1" height="1" fill="#222034" />
<rect x="16" y="13" width="1" height="1" fill="#222034" />
<rect x="17" y="13" width="1" height="1" fill="#222034" />
<rect x="18" y="13" width="1" height="1" fill="#222034" />
<rect x="19" y="13" width="1" height="1" fill="#222034" />
<rect x="24" y="13" width="1" height="1" fill="#222034" />
<rect x="25" y="13" width="1" height="1" fill="#222034" />
<rect x="8" y="14" width="1" height="1" fill="#222034" />
<rect x="9" y="14" width="1" height="1" fill="#222034" />
<rect x="15" y="14" width="1" height="1" fill="#222034" />
<rect x="16" y="14" width="1" height="1" fill="#222034" />
<rect x="17" y="14" width="1" height="1" fill="#222034" />
<rect x="24" y="14" width="1" height="1" fill="#222034" />
<rect x="25" y="14" width="1" height="1" fill="#222034" />
<rect x="8" y="15" width="1" height="1" fill="#222034" />
<rect x="9" y="15" width="1" height="1" fill="#222034" />
<rect x="15" y="15" width="1" height="1" fill="#222034" />
<rect x="16" y="15" width="1" height="1" fill="#222034" />
<rect x="24" y="15" width="1" height="1" fill="#222034" />
<rect x="25" y="15" width="1" height="1" fill="#222034" />
<rect x="8" y="16" width="1" height="1" fill="#222034" />
<rect x="9" y="16" width="1" height="1" fill="#222034" />
<rect x="24" y="16" width="1" height="1" fill="#222034" />
<rect x="25" y="16" width="1" height="1" fill="#222034" />
<rect x="8" y="17" width="1" height="1" fill="#222034" />
<rect x="9" y="17" width="1" height="1" fill="#222034" />
<rect x="10" y="17" width="1" height="1" fill="#222034" />
<rect x="15" y="17" width="1" height="1" fill="#222034" />
<rect x="16" y="17" width="1" height="1" fill="#222034" />
<rect x="23" y="17" width="1" height="1" fill="#222034" />
<rect x="24" y="17" width="1" height="1" fill="#222034" />
<rect x="9" y="18" width="1" height="1" fill="#222034" />
<rect x="10" y="18" width="1" height="1" fill="#222034" />
<rect x="15" y="18" width="1" height="1" fill="#222034" />
<rect x="16" y="18" width="1" height="1" fill="#222034" />
<rect x="22" y="18" width="1" height="1" fill="#222034" />
<rect x="23" y="18" width="1" height="1" fill="#222034" />
<rect x="24" y="18" width="1" height="1" fill="#222034" />
<rect x="9" y="19" width="1" height="1" fill="#222034" />
<rect x="10" y="19" width="1" height="1" fill="#222034" />
<rect x="21" y="19" width="1" height="1" fill="#222034" />
<rect x="22" y="19" width="1" height="1" fill="#222034" />
<rect x="23" y="19" width="1" height="1" fill="#222034" />
<rect x="8" y="20" width="1" height="1" fill="#222034" />
<rect x="9" y="20" width="1" height="1" fill="#222034" />
<rect x="10" y="20" width="1" height="1" fill="#222034" />
<rect x="11" y="20" width="1" height="1" fill="#222034" />
<rect x="12" y="20" width="1" height="1" fill="#222034" />
<rect x="13" y="20" width="1" height="1" fill="#222034" />
<rect x="18" y="20" width="1" height="1" fill="#222034" />
<rect x="19" y="20" width="1" height="1" fill="#222034" />
<rect x="20" y="20" width="1" height="1" fill="#222034" />
<rect x="21" y="20" width="1" height="1" fill="#222034" />
<rect x="22" y="20" width="1" height="1" fill="#222034" />
<rect x="7" y="21" width="1" height="1" fill="#222034" />
<rect x="8" y="21" width="1" height="1" fill="#222034" />
<rect x="9" y="21" width="1" height="1" fill="#222034" />
<rect x="10" y="21" width="1" height="1" fill="#222034" />
<rect x="11" y="21" width="1" height="1" fill="#222034" />
<rect x="12" y="21" width="1" height="1" fill="#222034" />
<rect x="13" y="21" width="1" height="1" fill="#222034" />
<rect x="14" y="21" width="1" height="1" fill="#222034" />
<rect x="15" y="21" width="1" height="1" fill="#222034" />
<rect x="16" y="21" width="1" height="1" fill="#222034" />
<rect x="17" y="21" width="1" height="1" fill="#222034" />
<rect x="18" y="21" width="1" height="1" fill="#222034" />
<rect x="19" y="21" width="1" height="1" fill="#222034" />
<rect x="20" y="21" width="1" height="1" fill="#222034" />
<rect x="6" y="22" width="1" height="1" fill="#222034" />
<rect x="7" y="22" width="1" height="1" fill="#222034" />
<rect x="8" y="22" width="1" height="1" fill="#222034" />
<rect x="9" y="22" width="1" height="1" fill="#222034" />
<rect x="10" y="22" width="1" height="1" fill="#222034" />
<rect x="13" y="22" width="1" height="1" fill="#222034" />
<rect x="14" y="22" width="1" height="1" fill="#222034" />
<rect x="15" y="22" width="1" height="1" fill="#222034" />
<rect x="16" y="22" width="1" height="1" fill="#222034" />
<rect x="17" y="22" width="1" height="1" fill="#222034" />
<rect x="5" y="23" width="1" height="1" fill="#222034" />
<rect x="6" y="23" width="1" height="1" fill="#222034" />
<rect x="7" y="23" width="1" height="1" fill="#222034" />
<rect x="8" y="23" width="1" height="1" fill="#222034" />
<rect x="9" y="23" width="1" height="1" fill="#222034" />
<rect x="4" y="24" width="1" height="1" fill="#222034" />
<rect x="5" y="24" width="1" height="1" fill="#222034" />
<rect x="6" y="24" width="1" height="1" fill="#222034" />
<rect x="7" y="24" width="1" height="1" fill="#222034" />
<rect x="8" y="24" width="1" height="1" fill="#222034" />
<rect x="3" y="25" width="1" height="1" fill="#222034" />
<rect x="4" y="25" width="1" height="1" fill="#222034" />
<rect x="5" y="25" width="1" height="1" fill="#222034" />
<rect x="6" y="25" width="1" height="1" fill="#222034" />
<rect x="7" y="25" width="1" height="1" fill="#222034" />
<rect x="2" y="26" width="1" height="1" fill="#222034" />
<rect x="3" y="26" width="1" height="1" fill="#222034" />
<rect x="4" y="26" width="1" height="1" fill="#222034" />
<rect x="5" y="26" width="1" height="1" fill="#222034" />
<rect x="6" y="26" width="1" height="1" fill="#222034" />
<rect x="1" y="27" width="1" height="1" fill="#222034" />
<rect x="2" y="27" width="1" height="1" fill="#222034" />
<rect x="3" y="27" width="1" height="1" fill="#222034" />
<rect x="4" y="27" width="1" height="1" fill="#222034" />
<rect x="5" y="27" width="1" height="1" fill="#222034" />
<rect x="6" y="27" width="1" height="1" fill="#222034" />
<rect x="0" y="28" width="1" height="1" fill="#222034" />
<rect x="1" y="28" width="1" height="1" fill="#222034" />
<rect x="2" y="28" width="1" height="1" fill="#222034" />
<rect x="3" y="28" width="1" height="1" fill="#222034" />
<rect x="4" y="28" width="1" height="1" fill="#222034" />
<rect x="5" y="28" width="1" height="1" fill="#222034" />
<rect x="0" y="29" width="1" height="1" fill="#222034" />
<rect x="1" y="29" width="1" height="1" fill="#222034" />
<rect x="2" y="29" width="1" height="1" fill="#222034" />
<rect x="3" y="29" width="1" height="1" fill="#222034" />
<rect x="4" y="29" width="1" height="1" fill="#222034" />
<rect x="0" y="30" width="1" height="1" fill="#222034" />
<rect x="1" y="30" width="1" height="1" fill="#222034" />
<rect x="2" y="30" width="1" height="1" fill="#222034" />
<rect x="3" y="30" width="1" height="1" fill="#222034" />
<rect x="0" y="31" width="1" height="1" fill="#222034" />
<rect x="1" y="31" width="1" height="1" fill="#222034" />
<rect x="2" y="31" width="1" height="1" fill="#222034" />
</svg>